<svg width="55" height="50" viewBox="0 0 55 50" fill="none" xmlns="http://www.w3.org/2000/svg">
<path d="M54.3624 35.7739C52.2244 35.3821 50.6124 36.7861 48.5938 34.694C48.0663 34.1477 47.3044 34.4557 47.0627 35.121C45.3302 39.8962 41.7262 37.5892 40.0748 34.2445C39.7549 33.5971 38.849 33.6532 38.516 34.2445C37.3746 37.1933 35.1767 37.5565 31.9218 35.334C31.4049 34.8565 30.5568 35.0171 30.3624 35.7687C28.9455 41.2505 23.9937 39.7445 22.4681 35.24C22.3913 35.0131 22.2261 34.903 22.0545 34.8833C21.7074 34.4245 20.9212 34.287 20.6503 34.9305C18.6989 39.5629 15.0768 38.8538 12.8223 34.9366C12.4153 34.2297 11.5752 34.4748 11.3084 35.1456C9.41239 39.9113 3.88785 39.8018 3.98623 34.0731C3.99703 33.4386 3.09763 33.3141 2.94555 33.9245C1.16602 41.064 9.43808 42.3021 12.3035 37.0614C15.2633 40.6157 19.7016 41.3451 21.8183 36.5616C23.6241 41.8079 29.5232 42.8398 31.7158 37.6197C34.5001 39.5842 37.1524 39.2756 39.2449 36.4846C41.7968 40.3324 46.344 41.7499 48.3626 37.0019C50.2151 38.3257 51.4441 37.3996 54.1245 37.6265C55.1249 37.7116 55.3535 35.9558 54.3624 35.7739Z" fill="#00B2A0"/>
<path d="M51.0108 43.4668C50.1721 44.922 49.8823 46.226 48.0858 46.9373C45.8745 47.8135 43.6735 45.7229 42.5837 44.0088C42.2078 43.4172 41.2958 43.3034 40.9446 44.0088C39.4053 47.1007 35.9963 46.3457 34.5417 43.3617C34.1841 42.6276 32.9747 42.7586 32.8261 43.5984C32.0087 48.2241 28.3388 48.7137 25.8808 45.361C26.1491 44.4583 24.7496 43.8438 24.3681 44.7274C22.3048 49.5069 18.2767 48.9729 15.9387 44.7077C15.5329 43.9675 14.6239 44.2271 14.3618 44.9253C12.4617 49.9888 9.50221 47.5801 7.84149 44.0948C7.51805 43.4156 6.59559 43.6508 6.40059 44.2936C5.49302 47.2872 3.99782 47.8461 1.47886 48.6206C1.0045 48.7667 1.07777 49.6361 1.59942 49.5627C4.48561 49.1564 6.06196 48.6141 7.2416 46.3441C9.6651 50.3409 13.0484 51.1572 15.3187 46.9518C18.2624 50.8434 22.9911 51.287 25.3341 46.657C27.9365 50.3957 32.301 50.2117 34.0487 46.1376C36.3034 48.9464 39.5852 49.3411 41.8557 46.1977C45.2346 49.7856 52.1452 50.5887 52.3916 43.8626C52.4222 43.0605 51.3818 42.8228 51.0108 43.4668Z" fill="#00B2A0"/>
<path d="M15.5226 7.50507C14.9568 7.67895 14.7338 8.12751 14.751 8.5804C10.7424 9.20593 8.14729 13.383 7.83756 17.5845C7.41399 23.3329 12.0374 26.7097 17.0502 26.2809C22.1757 25.8428 25.5099 21.0025 25.3593 15.8007C25.2087 10.605 20.5482 5.95773 15.5226 7.50507ZM16.3572 23.653C12.6781 23.9717 10.2981 21.3478 10.3685 17.5845C10.4423 13.6401 13.304 11.0391 16.6214 9.99918C16.6821 9.98006 16.7259 9.94738 16.7752 9.9184C20.0091 10.4511 22.4547 11.7506 22.7983 15.8001C23.155 20.0006 20.2347 23.3163 16.3572 23.653Z" fill="#00B2A0"/>
<path d="M10.8569 7.33132C10.2535 6.63796 9.58498 6.02877 8.90043 5.4276C8.22172 4.83135 7.50186 3.67771 6.54495 3.77205C6.03818 3.822 5.69489 4.16143 5.65957 4.70711C5.59242 5.74267 6.55925 6.25136 7.26248 6.77947C8.06642 7.3828 8.9016 7.92263 9.64774 8.60859C10.4756 9.37008 11.6085 8.19485 10.8569 7.33132Z" fill="#00B2A0"/>
<path d="M5.30955 10.4497C5.63124 10.4907 5.34692 10.4414 5.26197 10.4134C5.13148 10.3699 5.00362 10.3178 4.87605 10.266C4.73155 10.2077 4.58852 10.1448 4.44577 10.0819C4.43613 10.0776 4.43088 10.0755 4.41658 10.0687C4.28054 9.79276 4.04672 9.57048 3.74575 9.4709C3.20833 9.29239 2.39096 8.86602 1.81005 9.05871C1.48164 9.16784 1.13747 9.45486 1.07354 9.83653C1.07354 9.83653 1.07325 9.83808 1.07325 9.83869C1.01253 10.2003 1.0388 10.6708 1.34444 10.9223C1.51463 11.0617 1.71371 11.1604 1.92127 11.2454C1.75312 11.2448 1.88886 11.2532 2.04095 11.2905C2.14867 11.3296 2.25493 11.3697 2.36586 11.4008C2.63325 11.4958 2.90036 11.5923 3.16629 11.6906C3.31897 11.7477 3.47631 11.7526 3.6284 11.7236C4.17516 11.8771 4.77388 12.051 5.30984 12.0165C6.28426 11.9536 6.24252 10.569 5.30955 10.4497Z" fill="#00B2A0"/>
<path d="M3.63998 19.2588C3.23071 19.6211 2.75313 19.905 2.28782 20.1772C2.04728 20.3181 1.79856 20.4639 1.5408 20.5666C1.38638 20.628 1.14058 20.5765 1.48037 20.6421C1.31164 20.6098 1.15167 20.6064 0.983821 20.5873C-0.431102 20.426 -0.302366 23.1242 1.25735 22.7222C1.83184 22.5742 2.41889 21.9952 2.90726 21.6244C3.47388 21.1943 4.03961 20.7241 4.50668 20.1741C5.0406 19.5458 4.24162 18.7258 3.63998 19.2588Z" fill="#00B2A0"/>
<path d="M7.24429 24.6067C6.76496 25.3836 6.32796 26.1888 5.87199 26.9808C5.37777 27.8388 4.54055 28.4785 4.43079 29.5052C4.36073 30.1606 5.04031 30.4852 5.54212 30.3992C6.56821 30.2235 7.06885 28.8442 7.44396 27.9507C7.83104 27.0289 8.06896 26.0621 8.37897 25.1113C8.61718 24.3791 7.61298 24.0086 7.24429 24.6067Z" fill="#00B2A0"/>
<path d="M16.9422 27.3986C16.8411 26.8502 16.0381 26.8764 15.9204 27.3986C15.6116 28.7715 15.2499 30.1326 14.9466 31.5067C14.8733 31.8384 14.9364 32.2222 15.1854 32.4609C15.1445 32.4032 15.1492 32.4146 15.1991 32.4945C15.496 33.0068 16.1198 32.9483 16.4275 32.4945C16.1464 32.9088 16.6266 32.2938 16.6438 32.2623C16.7571 32.0579 16.7667 31.8433 16.7787 31.614C16.8038 31.1392 16.8566 30.6656 16.8995 30.1924C16.9839 29.2697 17.1115 28.3171 16.9422 27.3986Z" fill="#00B2A0"/>
<path d="M27.6073 28.2092C26.8732 27.0968 25.7073 26.3828 25.0399 25.2341C24.5831 24.4473 23.5368 25.1327 23.8898 25.9441C24.1957 26.6473 24.6631 27.2312 25.1456 27.8068C25.3759 28.0815 25.6118 28.3497 25.8144 28.6482C26.0908 29.0554 26.2044 29.5129 26.7433 29.5922C27.0533 29.6378 27.4071 29.5731 27.5636 29.2392C27.5782 29.2083 27.5927 29.1775 27.6071 29.1464C27.7407 28.8621 27.7921 28.4894 27.6073 28.2092Z" fill="#00B2A0"/>
<path d="M31.8792 19.9099C30.6435 19.9787 29.4075 20.0447 28.1718 20.1097C27.0599 20.1683 27.0599 21.8732 28.1718 21.932C29.4078 21.9974 30.6435 22.0634 31.8792 22.1315C33.236 22.207 33.236 19.835 31.8792 19.9099Z" fill="#00B2A0"/>
<path d="M31.8787 7.09895C30.7577 7.07429 29.8516 8.49614 29.1799 9.32207C28.458 10.2093 27.8237 11.1709 27.0878 12.0465C26.5255 12.7155 27.3922 13.6419 28.019 13.0299C28.761 12.3048 29.4348 11.5079 30.1471 10.751C30.5493 10.3237 30.9656 9.89334 31.4221 9.53047C31.9835 9.08499 32.4246 8.9404 32.6742 8.20141C32.8595 7.65296 32.3826 7.11005 31.8787 7.09895Z" fill="#00B2A0"/>
<path d="M26.4942 1.2963C25.8306 1.74579 25.3881 2.47583 24.9321 3.14329C24.4005 3.92143 23.8952 4.70327 23.2805 5.41296C22.5842 6.21669 23.6673 7.3731 24.4149 6.611C24.9952 6.01907 25.509 5.37381 26.0125 4.70912C26.5531 3.99573 27.2502 3.34245 27.6951 2.56431C28.1418 1.78371 27.2427 0.789458 26.4942 1.2963Z" fill="#00B2A0"/>
<path d="M18.2032 0.226597C17.8797 -0.0755323 17.4565 -0.0755323 17.133 0.226597C16.4981 0.819757 16.7909 1.85532 16.8437 2.64486C16.9045 3.55064 16.9696 4.45548 17.0475 5.36002C17.1202 6.20352 18.216 6.20352 18.2887 5.36002C18.3667 4.45517 18.4318 3.55094 18.4925 2.64486C18.5453 1.85563 18.8381 0.819449 18.2032 0.226597Z" fill="#00B2A0"/>
</svg>
